<svg width="1356" height="1361" viewBox="0 0 1356 1361" fill="none" xmlns="http://www.w3.org/2000/svg">
<circle cx="678" cy="678" r="678" fill="white"/>
<path d="M502 488.5C388 649 358.5 1276.15 358.5 1276.15C358.5 1276.15 435 1319.7 534.5 1341C620.215 1361.82 722.52 1368.01 804 1349.5C847.625 1339.59 907.254 1319.85 952.5 1299C1021.51 1267.2 1074.5 1229.5 1074.5 1229.5C1074.5 1229.5 677.69 971.385 892 807.5C977 742.5 1056.21 668 1061 573.5C1065.79 479 1013.5 375.5 910 338.5C806.5 301.5 616 328 502 488.5Z" fill="black"/>
<path d="M536 1341.37C536 1341.37 509 1030.19 614.5 1003.5C694.62 983.229 723.5 1069.5 781 1149C843.201 1235 904.693 1314.9 910.5 1316.5C910.5 1316.5 831.64 1350.06 750 1358C714 1361.5 664.5 1362.4 622 1356.5C604 1354 589.334 1352.06 577 1349.9C549.946 1345.16 536 1341.37 536 1341.37Z" fill="white"/>
<path d="M1141 627.5C1141 752.688 1065.2 860.174 957 906.569C939.943 913.882 895.479 933.5 875 961C840 1008 887 1059.5 887 1059.5C719.382 1059.5 534 795.118 534 627.5C534 459.882 669.882 324 837.5 324C1005.12 324 1141 459.882 1141 627.5Z" fill="black"/>
<path d="M271.817 649.675L272.075 649.08L272.282 648.465C274.509 641.87 275.421 636.036 274.866 630.602C274.342 625.472 272.512 621.716 271.869 620.395C271.809 620.272 271.759 620.17 271.721 620.09C251.679 577.175 245.001 527.648 255.791 477.8C282.034 356.562 401.751 279.547 523.223 305.84C644.696 332.134 721.849 451.762 695.606 573C669.363 694.239 549.646 771.254 428.174 744.961C406.92 740.36 388.245 731.952 368.006 722.84C363.591 720.853 359.102 718.832 354.495 716.809C353.792 716.501 352.864 716.021 351.697 715.419C346.318 712.642 335.876 707.251 319.175 703.949C301.208 700.397 284.183 699.512 270.967 698.825C267.719 698.656 264.702 698.499 261.957 698.318C256.281 697.943 252.13 697.492 249.088 696.887C250.519 693.368 252.494 689.073 254.827 684.26C256.874 680.038 259.269 675.289 261.657 670.556C265.599 662.744 269.519 654.972 271.817 649.675ZM244.64 695.525C244.641 695.525 244.664 695.538 244.702 695.566C244.658 695.54 244.638 695.526 244.64 695.525Z" fill="white" stroke="black" stroke-width="31"/>
<path d="M483.435 574.089C482.055 574.325 480.739 574.347 479.489 574.155C475.609 574.007 472.56 572.195 470.342 568.719C468.586 565.569 468.242 561.773 469.308 557.33C470.572 552.853 472.343 547.782 474.621 542.117C475.5 540.141 476.281 538.181 476.963 536.238C477.809 534.065 478.492 532.122 479.01 530.41C479.304 529.751 479.515 529.208 479.645 528.78C479.741 528.155 479.854 527.628 479.983 527.2C473.901 527.226 466.967 528.208 459.183 530.148C451.562 531.856 443.14 534.818 433.919 539.032C425.812 542.65 417.134 547.076 407.884 552.309C398.797 557.312 389.236 563.106 379.203 569.691C377.169 570.851 375 571.221 372.697 570.804C370.394 570.386 368.564 569.177 367.207 567.177C365.654 565.21 365.168 562.96 365.749 560.426C366.296 557.695 367.587 555.749 369.621 554.59C379.818 547.774 389.64 541.733 399.088 536.465C408.699 530.967 417.853 526.358 426.551 522.639C449.754 512.382 469.398 508.01 485.483 509.521C490.219 509.928 493.845 512.149 496.361 516.183C498.877 520.216 499.308 525.114 497.655 530.875C496.003 536.636 493.891 542.678 491.32 549.002C491.19 549.43 490.978 549.973 490.685 550.632C490.392 551.291 490.116 552.048 489.856 552.904C494.222 551.143 500.588 548.026 508.953 543.552C517.319 539.078 528.8 532.652 543.397 524.272C545.431 523.113 547.633 522.939 550.004 523.751C552.538 524.332 554.401 525.738 555.594 527.969C556.951 529.969 557.338 532.236 556.757 534.771C556.142 537.108 554.638 538.988 552.243 540.412C543.714 545.117 535.923 549.391 528.87 553.234C521.817 557.078 515.485 560.392 509.874 563.178C502.393 566.891 496.666 569.595 492.695 571.289C488.69 572.785 485.603 573.718 483.435 574.089Z" fill="black"/>
</svg>
